<?xml version="1.0" standalone="no"?>
<!DOCTYPE svg PUBLIC "-//W3C//DTD SVG 1.1//EN" "http://www.w3.org/Graphics/SVG/1.1/DTD/svg11.dtd" >
<svg xmlns="http://www.w3.org/2000/svg" width="100%" height="100%">
<metadata>
Created by FontXChange 20110222 at Tue Dec 13 15:13:49 2011
 By Jen Markowitz
Mariess
</metadata>
<defs>
<font id="Bigntall" horiz-adv-x="311" >
  <font-face 
    font-family="Bigntall"
    font-weight="500"
    font-stretch="normal"
    units-per-em="1000"
    panose-1="2 0 6 3 0 0 0 0 0 0"
    ascent="800"
    descent="-200"
    x-height="500"
    cap-height="699"
    bbox="-98 -226 403 701"
    underline-thickness="50"
    underline-position="-100"
    unicode-range="U+0020-007A"
  />
<missing-glyph horiz-adv-x="364" 
d="M66 33h199v600h-199v-600zM33 0v666h265v-666h-265z" />
    <glyph glyph-name=".notdef" horiz-adv-x="364" 
d="M66 33h199v600h-199v-600zM33 0v666h265v-666h-265z" />
    <glyph glyph-name=".null" horiz-adv-x="0" 
 />
    <glyph glyph-name="nonmarkingreturn" horiz-adv-x="333" 
 />
    <glyph glyph-name="space" unicode=" " horiz-adv-x="300" 
 />
    <glyph glyph-name="ampersand" unicode="&#x26;" horiz-adv-x="409" 
d="M101 501l49 1v98l-50 -1zM101 401l1 -302h49v303zM252 -101h-100v100h-50h-77h-23l-2 700h28l122 1h100l1 -600h99v-100h-98v-101z" />
    <glyph glyph-name="zero" unicode="0" horiz-adv-x="360" 
d="M100 599l2 -500l100 1l-2 500zM102 -1h-100l-2 700h28q131 1 197 1h75l2 -702h-100v1v1z" />
    <glyph glyph-name="one" unicode="1" horiz-adv-x="184" 
d="M25 -1v700h100v-700h-100z" />
    <glyph glyph-name="two" unicode="2" 
d="M0 599v100l151 1h76h23h1l-1 -295v-4h-150l1 -302l151 1v-100l-151 -1h-100l-1 402v99v1h150l1 99z" />
    <glyph glyph-name="three" unicode="3" 
d="M0 401v100h151v99l-151 -1v100l250 1v-1h1l-1 -599h1h1v-100h-1h-1v-1h-100v1l-125 -1v100l125 1l1 301h-151z" />
    <glyph glyph-name="four" unicode="4" horiz-adv-x="309" 
d="M0 401v100v199h100v-199h50l1 199h100l-1 -295v-4h-150l1 -402h-100z" />
    <glyph glyph-name="five" unicode="5" 
d="M97 499h-100l-1 -199h100v98l55 -1l-1 -150l-50 1h-62h-11h-27l1 -250h100v1h151v100h-151l-1 49l50 -1h100l1 250h1v100l-155 1v1z" />
    <glyph glyph-name="question" unicode="?" horiz-adv-x="309" 
d="M0 0v100h101v-100h-101zM101 174h-100l-1 227v100v1h100v-1h50l1 99l-151 -1v100l151 1h76h23h1l-1 -295v-4h-150z" />
    <glyph glyph-name="A" unicode="A" horiz-adv-x="310" 
d="M100 99l1 98l50 -1l-1 -98zM102 699h-100l-2 -700h28l122 -1h100l2 702h-100l-1 -404l-50 1z" />
    <glyph glyph-name="B" unicode="B" 
d="M101 501l50 1l-1 98l-50 -1zM101 401l1 -302l50 1l-1 302zM102 -1h-100l-2 700h28l122 1h100l2 -600v-100v-1v-1h-100v2z" />
    <glyph glyph-name="C" unicode="C" 
d="M102 -1h-100l-2 700h28l224 1v-100l-152 -1l2 -500l148 1v-100z" />
    <glyph glyph-name="D" unicode="D" horiz-adv-x="310" 
d="M100 599l2 -500l50 1l-2 500zM102 -1h-100l-2 700h28l122 1h100l2 -702h-100v2z" />
    <glyph glyph-name="E" unicode="E" horiz-adv-x="312" 
d="M102 -1h-100l-2 700h28l221 1v-100l-149 -1l1 -98l126 1v-100l-126 -1l1 -302l151 1v-100z" />
    <glyph glyph-name="F" unicode="F" horiz-adv-x="308" 
d="M102 -1h-100l-2 700h28l221 1v-100l-149 -1l1 -98l126 1v-100l-126 -1z" />
    <glyph glyph-name="G" unicode="G" horiz-adv-x="360" 
d="M151 400v100h149v-1h1v-501h-100v2l-99 -1h-100l-2 700h28l222 1v-100l-150 -1l2 -500l99 1v300h-50z" />
    <glyph glyph-name="H" unicode="H" horiz-adv-x="310" 
d="M102 -1h-100l-2 700h100l1 -198l50 1l-1 198h100l2 -702h-100l-1 404l-50 -1z" />
    <glyph glyph-name="I" unicode="I" horiz-adv-x="160" 
d="M102 -1h-100l-2 700h100z" />
    <glyph glyph-name="J" unicode="J" 
d="M0 700v-100l152 -1l-2 -825h100l2 845v80z" />
    <glyph glyph-name="K" unicode="K" horiz-adv-x="401" 
d="M102 -1h-100l-2 700h100l1 -198l50 1l-1 199h100l2 -296h-2v-3h-92l184 -356l-88 -46l-153 293z" />
    <glyph glyph-name="L" unicode="L" horiz-adv-x="312" 
d="M102 -1h-100l-2 700h100l2 -600l151 1v-100z" />
    <glyph glyph-name="M" unicode="M" horiz-adv-x="460" 
d="M252 -2h-100l-2 601h-50l2 -600h-100l-2 700h28h122v1h100h52h100l-1 -701h-100l1 601h-52z" />
    <glyph glyph-name="N" unicode="N" horiz-adv-x="310" 
d="M252 700h-100l-2 -602l-50 1l2 600h-100l-2 -700h27l123 -1h100z" />
    <glyph glyph-name="O" unicode="O" horiz-adv-x="360" 
d="M100 599l2 -500l100 1l-2 500zM102 -1h-100l-2 700h28q131 1 197 1h75l2 -702h-100v1v1z" />
    <glyph glyph-name="P" unicode="P" horiz-adv-x="310" 
d="M101 501l50 1v98l-51 -1zM102 -1h-100l-2 700h28l122 1h100l2 -296h-2v-2l-149 -1z" />
    <glyph glyph-name="Q" unicode="Q" horiz-adv-x="310" 
d="M101 500l50 1l-1 99h-49v-100zM252 -2h-100l-1 403l-54 -1h-95l-2 300h27h23h50h100h50z" />
    <glyph glyph-name="R" unicode="R" horiz-adv-x="401" 
d="M151 600l-51 -1l1 -101l51 1zM102 -1h-100l-2 700h28l123 1h100l1 -301h-2h-91l183 -353l-88 -46l-153 293z" />
    <glyph glyph-name="S" unicode="S" horiz-adv-x="309" 
d="M101 -1h-100h-1v100h1l-1 199h100l1 -199l50 1l-1 299l-52 -1h-96l-2 302h100v-1l150 1v-100l-149 -1v-101l147 1v-1h2l1 -497h-1h-2v-1z" />
    <glyph glyph-name="T" unicode="T" horiz-adv-x="382" 
d="M1 100v-100h50h49h100h123v100h-123l1 600h-100l-1 -600h-99z" />
    <glyph glyph-name="U" unicode="U" horiz-adv-x="360" 
d="M102 -1h-100l-2 700h100l2 -600l100 1l-2 600h100l2 -702h-100v1v1z" />
    <glyph glyph-name="V" unicode="V" 
d="M102 -1h-100l-2 700h100l2 -600l50 1l-2 600h100l2 -600v-100v-1v-1h-100v2z" />
    <glyph glyph-name="W" unicode="W" horiz-adv-x="460" 
d="M252 -2h-100h-103v1h-47l-2 700h100l2 -601h50l-2 602h100l2 -601h49l1 601h100l-1 -701h-56h-93v-1z" />
    <glyph glyph-name="X" unicode="X" 
d="M1 502v-100h1h75v-103h-75v-1v-1l-2 -297h100l1 199l50 -1l-1 -199h100l2 296h-2v3h-73v104h74v1h1v298h-100v-199h-50v197h-100v-197h-1z" />
    <glyph glyph-name="Y" unicode="Y" horiz-adv-x="310" 
d="M250 405v-3h-73v-402h-100v401h-75v1v1l-2 297h100l1 -199l50 1l-1 199h100l2 -296h-2z" />
    <glyph glyph-name="Z" unicode="Z" horiz-adv-x="309" 
d="M0 599v100l151 1h76h23h1l-1 -295v-4h-150l1 -303l50 1l-1 201h100l1 -301h-1h-1l-228 -1v1h-20l-1 402v99v1h150l1 99z" />
    <glyph glyph-name="a" unicode="a" 
d="M101 249l-1 -150l51 1v150zM0 400v100l250 1v-1v-1v-96v-1v-1l1 -301h1v-100l-152 -1h-78h-21h-1l1 320v30l149 1v51z" />
    <glyph glyph-name="b" unicode="b" 
d="M101 401l-1 -302l52 1l-2 302zM252 -2h-100v2l-52 -1h-69h-6h-25l1 701h100v-199l149 1v-3l2 -399v-100v-1v-1z" />
    <glyph glyph-name="c" unicode="c" 
d="M100 -1h-67h-8h-25l1 501h38l211 1v-100l-149 -1l-1 -301l152 1v-100z" />
    <glyph glyph-name="d" unicode="d" 
d="M101 400l-1 -301l52 1l-1 301zM252 -2h-100v2l-52 -1h-67h-8h-25l1 501h38l112 1l-1 199h100l2 -600v-100v-1v-1z" />
    <glyph glyph-name="e" unicode="e" 
d="M101 100v51l50 -1l-1 -51zM100 501h-67h-8h-25l1 -501h38l211 -1v3l1 248h-1h-1l-149 1v150l152 -1v100z" />
    <glyph glyph-name="f" unicode="f" horiz-adv-x="305" 
d="M102 -1h-100l-2 501h25v1h221v-100h-146l1 -52l120 -1v-100l-120 1z" />
    <glyph glyph-name="g" unicode="g" horiz-adv-x="383" 
d="M150 -2h-48v-123h48v123zM152 401h-51l-1 -105h52v105zM2 -225v297h73v131h-75l1 298h26l297 1v-100h-72l1 -199h-78v-127h75v-300h-2v-1h-146h-99h-1z" />
    <glyph glyph-name="h" unicode="h" horiz-adv-x="309" 
d="M100 -1h-100l1 501h100v-151l49 1v149h100l1 -501h-100l-1 252l-50 -1v-250z" />
    <glyph glyph-name="i" unicode="i" horiz-adv-x="159" 
d="M100 -1h-100l1 501h100zM1 574v100h98v-100h-98z" />
    <glyph glyph-name="j" unicode="j" horiz-adv-x="159" 
d="M-98 673v-100h98l1 -400h100l-1 501h-100v-1h-98zM1 99v-100h98v100h-98z" />
    <glyph glyph-name="k" unicode="k" horiz-adv-x="393" 
d="M101 -1h-100l-1 502h100v-198l51 1l-1 196h100l2 -297h-63l146 -156l-74 -68l-160 172v-152z" />
    <glyph glyph-name="l" unicode="l" horiz-adv-x="259" 
d="M100 500h-100l1 -501h100l-1 400h100v100h-100v1z" />
    <glyph glyph-name="m" unicode="m" horiz-adv-x="460" 
d="M251 -2h-100l-1 404h-49l-1 -403h-100l1 403h-1v100h400v-3h2l-1 -500h-100l1 403h-52z" />
    <glyph glyph-name="n" unicode="n" 
d="M252 0h-100l-1 402h-50l-1 -403h-100l1 403h-1v100h252v-100h-1z" />
    <glyph glyph-name="o" unicode="o" horiz-adv-x="335" 
d="M175 402h-74l-1 -302h76zM0 402v100h275v-2l1 -400v-99v-1h-176v-1h-100l1 403h-1z" />
    <glyph glyph-name="p" unicode="p" horiz-adv-x="309" 
d="M101 400v-51l50 1l-1 51zM100 -1h-100l1 501h38l211 1v-1v-1l1 -249h-1h-1l-149 -1v-250z" />
    <glyph glyph-name="q" unicode="q" horiz-adv-x="309" 
d="M150 401l-49 -1v-51l49 1v51zM251 -1h-100l-1 251l-66 -1h-82l-2 250h34v1l216 1v-3v-83v-14z" />
    <glyph glyph-name="r" unicode="r" horiz-adv-x="309" 
d="M100 -1h-100l1 501h38l211 1v-100l-149 -1z" />
    <glyph glyph-name="s" unicode="s" 
d="M-1 -1v100l152 1l-1 150l-50 -1h-62h-11h-27l1 252h100v-1l149 1v-100l-149 -1l-1 -51l50 1h100l1 -250h1v-100z" />
    <glyph glyph-name="t" unicode="t" horiz-adv-x="382" 
d="M1 399v100h322v-100h-123l1 -399h-100l-1 399h-99z" />
    <glyph glyph-name="u" unicode="u" horiz-adv-x="335" 
d="M100 -1h-100l1 501h100l-1 -400h76l-1 400h100l1 -400v-99v-1h-176v-1z" />
    <glyph glyph-name="v" unicode="v" 
d="M252 0v-1h-152h-50h-50v100l1 401h100l-1 -401h52l-1 402h100l1 -402v-99z" />
    <glyph glyph-name="w" unicode="w" horiz-adv-x="461" 
d="M253 99h49l1 402h100l-1 -500h-1v-2h-301h-99h-1l1 501h100l-1 -401h53l-1 401h100z" />
    <glyph glyph-name="x" unicode="x" 
d="M2 -2v254h76v48h-78l1 202h100l-1 -128h52l-1 126h100l2 -201h-75v-50h72v-250h-100v176h-48v-177h-100z" />
    <glyph glyph-name="y" unicode="y" 
d="M178 299v-300h-100v301h-78l1 202h100l-1 -128h52l-1 126h100l2 -201h-75z" />
    <glyph glyph-name="z" unicode="z" 
d="M0 400v100l250 1v-1l1 -249h-1h-1v-1l-148 -1l-1 -150l152 1v-100l-152 -1h-78h-21h-1l1 320v30l150 1l-1 51z" />
  </font>
</defs>
</svg>
